<svg xmlns="http://www.w3.org/2000/svg" xmlns:v="https://vecta.io/nano" width="185.1" height="39.3"><path d="M32.4 1.8c-9-1-28.8.4-28.8.4C1.7 2.2.3 3.7.3 5.4l.6 29.5c0 1.8 1.4 3 3.2 3.2 11.4 1.7 30.2-.2 30.2-.2 1.8 0 3.2-1.4 3.2-3.2L36.2 5c0-1.8-2-3-3.8-3.2" fill="#3a6f84"></path><path d="M15.3 38.1s-7.8-.3-10.8-3.3-1.2-10.5-1.2-14.6-1.5-11 1.5-14c1.9-1.9 16.9-4.3 26.3-1.7 3.4.9 4 10.9 4.3 15.4.3 4.1 1.5 12.5-1.4 15.5-2.8 2.8-14.6 2.7-18.7 2.7m3.6-33.2c-8.4 0-15.2 6.8-15.2 15.2 0 4 1.5 7.8 4.4 10.7s6.7 4.5 10.7 4.5h0c4 0 7.8-1.5 10.7-4.4s4.4-6.7 4.4-10.7h.1c.2-8.4-6.7-15.3-15.1-15.3h0m.1 29.8h-.2c-3.1-.1-5.8-.9-8.2-2.6-1.5-1-2.3-2.5-2.1-4.1.1-1.3 1.1-2.4 2.5-2.5 1.5-.1 2.7.7 3 2.1.1.5.3 1.3-.6 1.5-.3.1-.6.1-.8-.1-.3-.2-.5-.6-.6-.9-.1-.5-.4-.7-.8-.6-.3 0-.6.2-.6.8 0 1.1.9 2.2 2.2 2.4 1.1.2 2.4-.6 2.8-1.7s.1-2.1-.8-2.8c-1.4-1.1-2.4-2.5-2.8-4-.1-.3-.2-.4-.3-.4s-.2.1-.3.3c0 0 0 .1-.1.1-1 1.4-2.1 3.1-3.1 4.6-.2.4-.6.8-1.1.8-.4 0-.7-.5-.9-.9-2-3.5-2.3-7.3-1.2-11.1.4-1.5 1.4-2.5 2.9-3 1.5-.4 2.9.3 3.4 1.6.6 1.3 0 2.9-1.3 3.5-.2.1-1 .5-1.4-.2-.2-.3-.2-.5-.2-.8.1-.3.2-.5.5-.7s.5-.4.6-.6c0-.2 0-.3-.2-.5-.3-.5-.7-.4-1.3 0-.8.5-1.3 1.7-1.1 2.7s1.1 1.8 2.2 2c1.2.1 2.3-.4 2.7-1.4.6-1.6 1.6-3.1 3-4.1l.3-.3c0-.1-.2-.2-.5-.3-1.2-.4-2.5-.7-3.7-1-.5-.1-1-.3-1.7-.4-.7-.2-1-.4-1.1-.7-.1-.4.3-.8.6-1.1C11.6 7.4 15.1 6 19 6c1.5 0 2.8.6 3.7 1.9.8 1.1.7 2.7-.2 3.6a2.75 2.75 0 0 1-3.6.3c-.4-.3-.6-.6-.7-.9-.1-.4 0-.8.3-1s.6-.3 1-.1c.1.1.3.2.4.3l.1.1c.4.3.7.3 1-.1.2-.2.4-.5 0-1-.4-.6-1.1-.9-2-.9-.8 0-1.5.4-2 1-.6.7-.7 1.8-.3 2.6.3.8 1 1.3 2 1.4 1.7.2 3.5.5 5.1 1.7.1.1.2.1.3.1s.2-.2.1-.5c0-.9-.1-2-.1-2.9 0-.4-.1-.9-.1-1.3v-.4c0-.4-.1-.8 0-1.2 0-.5.2-.8.4-1 .3-.2.6-.1 1 .1 3.8 1.9 6.4 4.9 7.6 8.9.4 1.4.2 2.9-.7 4s-2.6 1.4-3.7.7-1.7-2.4-1-3.6c.1-.3.5-1 1.3-.7.3.1.5.3.6.5.1.3.1.6-.1.9-.1-.3-.2-.1-.1.1a.78.78 0 0 0 .4.4c.4.2.7 0 1.1-.6.5-.9.3-2.1-.4-2.9-.7-.7-1.9-1-2.9-.5-1 .4-1.7 1.4-1.4 2.5 0 .3.1.7.2 1 .1.6.3 1.2.2 1.9 0 .7-.1 1.4-.3 2.3 0 .1 0 .1-.1.2-.1.3-.1.4 0 .5s.2.1.5 0c.1 0 .1-.1.2-.1l2.6-.9c.9-.3 1.9-.7 2.8-1 .5-.2.9-.2 1.1 0s.3.6.2 1.1c-.6 4-2.6 7.3-5.7 9.6-1.3 1-2.8 1.2-4.2.8-1.3-.4-2.3-1.9-2.1-3.2.3-1.4 1.7-2.5 3.2-2.3.9.1 1.1.6 1.1 1.1 0 .3-.1.5-.3.7s-.5.3-.9.2c-.4 0-.9.1-1 .7 0 .3.1.7.9.8.9.2 2-.3 2.6-1.2.5-.9.5-2-.1-2.9-.6-.8-1.7-1.2-2.7-.9-.4.1-.8.3-1.1.5-1.2.8-2.6 1.2-4 1.2h-.1c-.4 0-.5 0-.6.2s0 .3.2.5l.1.1c1 1.2 2.1 2.6 3.4 4.3v.1c.2.3.5.6.3 1.1s-.7.6-1 .6h0c-.1 0-.3 0-.4.1-.9 0-1.5.1-2.1.1M11.1 26h-.2c-1.1.1-2 .9-2.1 2.1-.1 1.5.5 2.8 1.9 3.7 2.3 1.7 5 2.5 7.9 2.5h0c.7 0 1.4-.1 2.1-.1.1 0 .3 0 .4-.1h0c.4 0 .6-.1.6-.3.1-.2 0-.4-.3-.7V33c-1.3-1.7-2.5-3.1-3.4-4.3l-.1-.1c-.2-.2-.5-.5-.3-1s.7-.5 1-.5h.1c1.3 0 2.7-.4 3.8-1.1.4-.3.8-.4 1.2-.6 1.2-.3 2.4.1 3.1 1.1a3.21 3.21 0 0 1 .2 3.4c-.6 1-2 1.7-3 1.4-.9-.2-1.3-.6-1.3-1.3.1-.8.6-1.2 1.5-1.1.3 0 .5 0 .6-.1s.1-.2.1-.3c0-.3-.1-.5-.7-.6-1.2-.2-2.4.6-2.7 1.9-.2 1.1.5 2.4 1.7 2.7 1.3.4 2.6.1 3.8-.7 3-2.3 4.9-5.4 5.5-9.4.1-.3 0-.6-.1-.7s-.3-.1-.7 0c-.9.3-1.9.7-2.8 1l-2.6.9s-.1 0-.2.1c-.2.1-.6.3-1 0s-.2-.7-.1-1v-.2a8.33 8.33 0 0 0 .3-2.2c0-.7 0-1.5-.1-2.1-.1-.3-.1-.7-.2-1-.2-1.2.5-2.5 1.8-3 1.1-.5 2.6-.2 3.4.6.9.9 1.1 2.4.5 3.4-.2.3-.6 1.2-1.7.8-.3-.1-.6-.3-.7-.6s-.1-.7.1-1.1c.1-.2.1-.4.1-.6 0-.1-.2-.2-.3-.3.2.1 0 .1-.3.7-.5 1-.1 2.4.8 3s2.4.4 3.1-.6c.8-1 1-2.3.6-3.6-1.1-3.7-3.6-6.6-7.3-8.5-.2-.1-.4-.1-.6-.1-.1.1-.2.3-.2.6v1.7c0 .4 0 .9.1 1.3.1.9.1 2 .1 2.9 0 .5-.1.8-.4.9-.1.1-.4.1-.8-.1-1.5-1-3.3-1.4-4.9-1.7-1.1-.1-2-.8-2.3-1.8-.4-1-.3-2.2.4-3.1.5-.7 1.4-1.1 2.4-1.1.9 0 1.8.4 2.4 1.1.4.6.4 1.1 0 1.7-.5.5-1 .5-1.7.1l-.1-.1c-.1-.1-.2-.2-.3-.2-.3-.1-.4-.1-.5 0-.2.1-.2.3-.2.6.1.3.2.5.5.7 1 .7 2.2.6 3.1-.3.8-.8.8-2.1.2-3.1A4.03 4.03 0 0 0 19 5.7h0c-3.8 0-7.1 1.4-10 4.1-.4.4-.5.6-.5.7s.1.2.8.4c.5.1 1 .3 1.7.4 1.2.3 2.5.7 3.8 1 .6.2.8.5.8.7s0 .5-.4.8c-1.3.9-2.3 2.3-2.9 3.9-.4 1.2-1.8 2-3.2 1.8-1.2-.1-2.3-1.1-2.6-2.4-.2-.9.4-2.3 1.4-2.9.4-.2 1.2-.7 2 .2.2.3.3.6.2.9-.1.4-.5.7-.7.9-.1.1-.3.2-.4.4 0 .1 0 .3.1.4.2.2.3.3.9 0 1.1-.6 1.5-1.9 1.1-3-.5-1.1-1.8-1.8-2.9-1.3-1.5.7-2.4 1.7-2.8 3-1.1 3.7-.8 7.4.9 10.9.3.5.5.6.6.6s.3-.1.7-.6l3.1-4.6v-.1c.1-.2.3-.5.8-.5s.6.5.7.7c.4 1.4 1.3 2.6 2.7 3.7 1 .8 1.4 2.1.9 3.3-.4 1.3-2 2.3-3.3 2-1.4-.3-2.6-1.5-2.6-2.9 0-.9.6-1.2 1-1.3.7-.1 1.1.2 1.3.9.1.3.2.6.3.7s.2.1.4 0c.4-.1.4-.4.3-1 0-.9-.8-1.5-2.1-1.5" fill="#fbbf22"></path><path d="M19 4.9s-.1 0 0 0c-8.4 0-15.2 6.8-15.3 15.2 0 4 1.5 7.8 4.4 10.7s6.7 4.5 10.7 4.5h0c4 0 7.8-1.5 10.7-4.4s4.4-6.7 4.4-10.7c.3-8.4-6.6-15.3-14.9-15.3m13.2 14.9c-.9 1.1-2.6 1.4-3.7.7s-1.7-2.4-1-3.6c.1-.3.5-1 1.3-.7.3.1.5.3.6.5.1.3.1.6-.1.9-.1.3-.2.5-.1.7a.78.78 0 0 0 .4.4c.4.2.7 0 1.1-.6.6-.9.4-2-.4-2.9-.7-.7-1.9-1-2.9-.5-1 .4-1.7 1.4-1.4 2.5 0 .3.1.7.2 1 .1.6.3 1.2.2 1.9 0 .7-.1 1.4-.3 2.3 0 .1 0 .1-.1.2-.1.3-.1.4 0 .5s.2.1.5 0c.1 0 .1-.1.2-.1l2.6-.9c.9-.3 1.9-.7 2.8-1 .5-.2.9-.2 1.1 0s.3.6.2 1.1c-.6 4-2.6 7.3-5.7 9.6-1.3 1-2.8 1.2-4.2.8-1.3-.4-2.3-1.9-2.1-3.2.3-1.4 1.7-2.5 3.2-2.3.9.1 1.1.6 1.1 1.1 0 .3-.1.5-.3.7-.1.3-.4.4-.8.3-.4 0-.9.1-1 .7 0 .3.1.7.9.8.9.2 2-.3 2.6-1.2.5-.9.5-2-.1-2.9-.6-.8-1.7-1.2-2.7-.9-.4.1-.8.3-1.1.5-1.2.8-2.6 1.2-4 1.2h-.1c-.4 0-.5 0-.6.2s0 .3.2.5l.1.1c1 1.2 2.1 2.6 3.4 4.3v.1c.2.3.5.6.3 1.1s-.7.6-1 .6h0c-.1 0-.3 0-.4.1-.6.1-1.2.2-2 .2h-.2c-3.1-.1-5.8-.9-8.2-2.6-1.5-1-2.3-2.5-2.1-4.1.1-1.3 1.1-2.4 2.5-2.5 1.5-.1 2.7.7 3 2.1.1.5.3 1.3-.6 1.5-.3.1-.6.1-.8-.1-.3-.2-.5-.6-.6-.9-.1-.5-.4-.7-.8-.6-.3 0-.6.2-.6.8 0 1.1.9 2.2 2.2 2.4 1.1.2 2.4-.6 2.8-1.7s.1-2.1-.8-2.8c-1.4-1.1-2.4-2.5-2.8-4-.1-.3-.2-.4-.3-.4s-.2.1-.3.3c0 0 0 .1-.1.1-1 1.4-2.1 3.1-3.1 4.6-.2.4-.6.8-1.1.8-.4 0-.7-.5-.9-.9-2.1-3.4-2.4-7.2-1.3-11 .4-1.5 1.4-2.5 2.9-3 1.5-.4 2.9.3 3.4 1.6.6 1.3 0 2.9-1.3 3.5-.2.1-1 .5-1.4-.2-.2-.3-.2-.5-.2-.8.1-.3.2-.5.5-.7s.5-.4.6-.6c0-.2 0-.3-.2-.5-.3-.5-.7-.4-1.3 0-.8.5-1.3 1.7-1.1 2.7s1.1 1.8 2.2 2c1.2.1 2.3-.4 2.7-1.4.6-1.6 1.6-3.1 3-4.1l.3-.3c0-.1-.2-.2-.5-.3-1.2-.4-2.5-.7-3.7-1-.5-.1-1-.3-1.7-.4-.7-.2-1-.4-1.1-.7-.1-.4.3-.8.6-1.1C11.6 7.4 15.1 6 19 6h0c1.5 0 2.8.6 3.7 1.9.8 1.1.7 2.7-.2 3.6a2.75 2.75 0 0 1-3.6.3c-.4-.3-.6-.6-.7-.9-.1-.4 0-.8.3-1s.6-.3 1-.1c.1.1.3.2.4.3l.1.1c.4.3.7.3 1-.1.2-.2.4-.5 0-1-.4-.6-1.1-.9-2-.9-.8 0-1.5.4-2 1-.6.7-.7 1.8-.3 2.6.3.8 1 1.3 2 1.4 1.7.2 3.5.5 5.1 1.7.1.1.2.1.3.1s.2-.2.1-.5c0-.9-.1-2-.1-2.9 0-.4-.1-.9-.1-1.3v-.4c0-.4-.1-.8 0-1.2 0-.5.2-.8.4-1 .3-.2.6-.1 1 .1 3.8 1.9 6.4 4.9 7.6 8.9.3.5 0 1.9-.8 3.1" fill="#e4232b"></path><path d="M13.8 11.2l-2.5-.7c-.4-.1-.5-.4-.1-.6.9-.7 2-1.3 3-1.8.5-.2.7 0 .5.5-.2.7-.4 1.3-.2 2.2.1.4-.1.6-.7.4m-7.4 9.2c.1 0 .2.1.3.2.6.4 1.2.7 1.9.8.5.1.5.3.3.7l-1.6 2.3c-.2.3-.5.4-.6 0-.4-1.1-.6-2.3-.7-3.4.1-.4.1-.6.4-.6M26 9.6c.1 0 .1 0 .2.1 1 .7 2 1.5 2.8 2.6.2.3-.1.4-.3.5-.8 0-1.5.1-2.3.5-.2.1-.4.1-.5-.2-.2-1-.2-2.1-.1-3.1 0-.2 0-.4.2-.4m5.2 14.3c-.3 1.1-.9 2.3-1.5 3.3-.2.3-.4.2-.5-.1-.3-.7-.6-1.4-1.2-2.1-.3-.3-.1-.5.2-.6l2.7-.9c.2-.2.4 0 .3.4m-13 9c-.7 0-1.5-.1-2.4-.3-.2-.1-.4-.1-.5-.3 0-.2.2-.3.3-.4.5-.3.9-.8 1.2-1.3s.6-.7 1-.1.9 1.1 1.4 1.8c.1.2.4.4.3.6-.1.3-.4.2-.6.2-.2-.1-.4-.2-.7-.2" fill="#fbbf22"></path><path d="M23.2 20.1c0 2.4-3 4.1-4.2 4.2-2.4.3-4.2-2-4.2-4.2s1.4-4.9 3.8-4.9c2.1.1 4.6 2.6 4.6 4.9" fill="#e4232b"></path><path d="M20.8 20c0 1-1.3 1.9-2 2-1 .2-2-.8-2-2 0-1 .6-2.2 1.8-2.2 1.1 0 2.2 1.1 2.2 2.2" fill="#fbbf22"></path><g fill="#3a6f84"><path d="M62.1 2.4c-.3-.3-.6-.5-.9-.5-.3-.1-.7 0-1 .2s-.6.3-.8.7-.3.9-.5 1.6l-.6 2.1c-.2.7-.5 1.5-.9 2.2s-.8 1.3-1.3 1.8c0-.5-.1-1-.2-1.7s-.3-1.4-.5-2.1c-.2-.8-.5-1.5-.9-2.3s-.8-1.5-1.4-2.2c-.3-.4-.7-.6-1.2-.7s-.9-.1-1.2 0c-.5.2-1 .7-1.4 1.2-.4.6-.8 1.2-1.1 2l-.8 2.2c-.3.8-.4 1.6-.6 2.4s-.3 1.5-.4 2.1l-.2 1.4-.2 3.5c-.1 1.4.1 2.9.4 4.7.2.6.4 1.1.7 1.4s.6.5 1 .6.7.1 1-.1c.3-.1.6-.4.9-.7.2-.4.4-.8.5-1.4s0-1.2-.1-2c-.4-1.6-.5-3.4-.4-5.5s.4-4.6.8-7.4c.3.3.6.8.9 1.4s.6 1.2.8 1.9.5 1.4.6 2.2c.2.8.3 1.5.3 2.3 0 .2 0 .4.1.7 0 .2.2.4.5.4.2 0 .5 0 .9-.2.4-.1.8-.4 1.4-.8.6-.5 1.1-1.1 1.6-1.7.6-.7 1.1-1.7 1.7-3 .1 1.3 0 2.6-.2 4.1-.2 1.4-.5 2.8-.9 4.2-.4 1.3-.9 2.6-1.4 3.7s-1 2-1.4 2.7c-.4.6-.6 1.2-.5 1.8.1.5.3 1 .7 1.4.2.2.4.4.7.4.3.1.6.1.9.1s.6-.2.9-.4a2.36 2.36 0 0 0 .8-.9c.9-1.5 1.6-3.1 2-4.9l1-5.6.4-5.9c.1-2 0-4.1-.2-6.2.1-.5 0-.9-.3-1.2m49.9 10c-.1 0-.2.1-.2.2s-.1.2-.2.4c-.1.3-.1.7-.2 1.1l-.3 1.2c-.1.4-.2.8-.4 1.1-.2.4-.3.7-.5 1a2.36 2.36 0 0 1-.8.9c-.3.2-.5.3-.8.2-.2 0-.4-.2-.5-.5s-.2-.8-.1-1.5c0-.7.1-1.4.3-2.3.1-.8.3-1.6.5-2.3s.1-1.3-.1-1.7c-.3-.5-.6-.8-1-.9s-.8-.1-1.2.2-.7.9-.8 1.7c0 .4-.1.7-.1 1s-.1.7-.1 1l-.4 2.2c-.2.8-.4 1.5-.8 2.1-.3.4-.5.6-.8.8s-.5.3-.8.3c-.2 0-.4-.2-.6-.5-.1-.3-.2-.8-.1-1.5l.3-2.3c.1-.7.3-1.5.5-2.2.2-.9.2-1.6 0-2.1s-.6-.9-1-1-.8 0-1.3.4c-.4.4-.7 1-.9 2-.1.6-.2 1.2-.2 1.8-.1.6-.1 1.3-.1 2 0 .4 0 .9.1 1.3v.1c-.1.4-.3.7-.5 1-.3.4-.5.7-.8.9s-.5.2-.7.1-.3-.5-.4-1 0-1.4.1-2.5c.1-1 .2-1.8.1-2.5s-.2-1.2-.4-1.6-.5-.7-.8-1c-.3-.2-.7-.4-1.1-.5h-.4c.6-.4 1.1-.9 1.5-1.5s.7-1.2.9-1.9.3-1.3.3-2-.1-1.3-.2-1.8c-.2-.6-.4-1-.8-1.4s-.8-.6-1.4-.7c-.9-.2-1.6-.1-2.2.3s-1.2.9-1.6 1.6-1.3 1-1.6 2-.5 2.1-.7 3.2l-.3 1.9-.3 2.3-.3 2.4c0 .3-.1.5-.1.8-.1.2-.1.3-.2.5-.2.4-.4.9-.7 1.3s-.7.9-1.2 1.2c-.7.6-1.4.9-2.1 1-.8.1-1.5.1-2.1-.2-.6-.2-1.2-.7-1.6-1.3s-.6-1.4-.5-2.3c0-.5.1-.9.2-1.3s.3-.8.5-1.1.5-.6.8-.7c.3-.2.7-.3 1.2-.2.5 0 .8.2 1.1.6.3.3.4.7.3 1.1-.1.3-.1.6.1.8s.4.3.7.3.6-.1.9-.3.5-.5.7-.9c.2-.7.2-1.3-.1-1.9-.2-.6-.6-1.1-1.2-1.5-.5-.4-1.1-.7-1.8-.8s-1.4-.1-2.1.1-1.3.6-1.9 1.1c-.5.5-.9 1-1.2 1.6s-.6 1.2-.7 1.8-.2 1.3-.2 1.9c0 .3 0 .6.1.9-.1.3-.3.6-.4.9-.2.3-.5.6-.7.8-.3.2-.6.3-.8.3s-.5-.1-.6-.4c-.2-.3-.2-.8-.2-1.5l.3-2.3c.1-.7.3-1.5.5-2.2.1-.6.1-1.1 0-1.5-.2-.4-.4-.8-.7-1s-.7-.3-1-.2c-.4.1-.7.3-1 .7-.6-.5-1.3-.9-2.1-1s-1.5-.1-2.2.2c-.7.2-1.3.6-1.8 1.1s-.9 1-1.2 1.6-.6 1.2-.7 1.8-.2 1.3-.2 1.9.1 1.3.2 2a4.98 4.98 0 0 0 1 1.9c.5.6 1.1 1 1.8 1.3s1.4.4 2.2.3c.6 0 1.2-.2 1.8-.6.5-.4 1-.8 1.3-1.3a2.73 2.73 0 0 0 .9 1.2c.4.3.8.5 1.3.5s.9-.2 1.3-.5.7-.7 1-1.2c.2-.3.4-.7.6-1.1.2.5.5.9.8 1.3.4.5 1 .9 1.6 1.2.7.3 1.4.5 2.3.5 1.2 0 2.3-.3 3.1-.8s1.5-1.2 2.1-2c.1-.2.3-.4.4-.6 0 .2 0 .4-.1.6-.1.5-.1.9-.1 1.1-.1.5 0 .9.3 1.1s.6.3.9.4c.3 0 .7-.1 1-.2.3-.2.5-.4.5-.7.1-.4.2-.9.3-1.8l.4-2.8c.1-.6.4-1.1.6-1.6.2-.4.5-.7.7-.9.3-.2.5-.3.8-.3s.5 0 .7.1c.4.1.6.4.8.8s.2 1 .1 2c-.2 1.8-.2 3.2.2 4.2s1.1 1.4 2.1 1.4c.5 0 .9-.1 1.3-.4s.7-.7 1-1.2c.2-.3.4-.6.5-1l.3.8c.2.5.6 1 .9 1.3.4.3.8.5 1.3.5.4 0 .9-.1 1.2-.4a1.96 1.96 0 0 0 .9-.9c.3-.4.5-.8.7-1.3s.4-1 .5-1.5c.1.5.2 1 .4 1.5s.4.9.6 1.3a2.36 2.36 0 0 0 .8.9c.3.2.7.3 1.1.3.5 0 .9-.2 1.3-.5s.7-.7 1-1.2.5-1 .8-1.6l.5-1.7.3-1.5c.1-.5.1-.8.1-1.1v-.5c0-.1-.2-.5-.3-.5m-41 3c0 .4-.1.7-.2 1.1s-.3.7-.5 1-.5.6-.8.7a1.39 1.39 0 0 1-1.1.2c-.5 0-.9-.2-1.2-.4s-.6-.5-.7-.9c-.2-.3-.3-.7-.3-1.1v-1c0-.4.1-.9.2-1.3s.3-.8.5-1.1.5-.6.8-.8.7-.3 1.1-.3.8.2 1.1.4.5.5.7.9c.2.3.3.7.4 1.1v1.5m22.1-6.9c-.5.4-1.1.6-1.7.6 0-.3.1-.6.1-.8s.1-.5.1-.7l.4-2 .5-1.9c.2-.6.4-1 .7-1.3s.6-.4.9-.3c.2.1.4.3.6.7.1.4.2.8.2 1.3s0 1-.1 1.6-.3 1.1-.6 1.6c-.3.4-.6.8-1.1 1.2m37.7-2.8c-.6-1-1.4-1.8-2.2-2.5S127 2 126.1 1.7s-1.6-.5-2.3-.5c-1.2 0-2 .1-2.5.5s-.8.8-.8 1.3v10.5l-.2 4.4-.4-.1c-.5-.1-.8-.1-.8.2s.2.6.6 1c.1.1.1.2.2.2.1.1.2.1.3.2-.1.5-.6 7-.7 7.5-.1.4 0 .6.2.6s.6-.1 1-.3c.3-.2.6-.5.9-.9s.8-5.2 1-5.7c1.5.2 2.8.1 3.9-.2s2-.8 2.7-1.5 1.3-1.4 1.8-2.3c.4-.9.8-1.8.9-2.7.2-.9.3-1.8.3-2.6s0-1.5-.1-2c-.2-1.4-.6-2.6-1.3-3.6m-2.5 8.7c-.2.8-.6 1.4-1 2s-1 1-1.7 1.3-1.4.5-2.3.4c.1-.5.2-1.1.4-1.7l.4-2.4.4-3.4.3-4.7c.6 0 1.1.2 1.6.6s.9.9 1.2 1.5.6 1.2.8 1.9.3 1.4.3 2.1c-.1.9-.2 1.7-.4 2.4m7.9-6.4c.5.1.9 0 1.2-.3s.5-.6.5-1c.1-.4 0-.8-.2-1.2a1.27 1.27 0 0 0-.9-.7c-.5-.1-.9 0-1.3.2s-.5.6-.6 1 0 .8.2 1.2.6.7 1.1.8m48.8 4.5c0-.1-.1-.2-.2-.2s-.2.1-.2.2c-.1.1-.1.2-.2.4-.1.3-.1.7-.2 1.1l-.3 1.2c-.1.4-.2.8-.4 1.1s-.3.7-.5 1a2.36 2.36 0 0 1-.8.9c-.3.2-.5.3-.8.2-.2 0-.4-.2-.5-.5s-.2-.8-.1-1.5c0-.7.1-1.4.3-2.3.1-.8.3-1.6.5-2.3s.1-1.3-.1-1.7c-.3-.5-.6-.8-1-.9s-.8-.1-1.2.2-.7.9-.8 1.7c0 .4-.1.7-.1 1s-.1.7-.1 1l-.4 2.2c-.2.8-.4 1.5-.8 2.1-.2.4-.5.6-.8.8s-.5.3-.8.3c-.2 0-.4-.2-.6-.5-.1-.3-.2-.8-.1-1.5l.3-2.3c.1-.7.3-1.5.5-2.2.2-.9.2-1.6 0-2.1s-.6-.9-1-1-.8 0-1.3.4c-.4.4-.7 1-.9 2-.1.6-.2 1.2-.2 1.8-.1.6-.1 1.3-.1 2 0 .4 0 .9.1 1.3v.1c-.1.4-.3.7-.5 1-.3.4-.5.7-.8.9s-.5.2-.7.1-.3-.5-.4-1 0-1.4.1-2.5c.1-1 .2-1.8.1-2.5s-.2-1.2-.4-1.6-.5-.7-.8-1c-.3-.2-.7-.4-1.1-.5h-.4c.6-.4 1.1-.9 1.5-1.5s.7-1.2.9-1.9.3-1.3.3-2-.1-1.3-.3-1.8c-.2-.6-.4-1-.8-1.4s-.8-.6-1.4-.7c-.9-.2-1.6-.1-2.2.3-.6.3-1.2.9-1.6 1.6-.5.8-.8 1.7-1.1 2.6-.3 1-.5 2.1-.7 3.2l-.3 1.9-.3 2.3-.3 2.4c0 .3-.1.5-.1.8-.1.2-.1.3-.2.5-.2.4-.4.9-.7 1.3s-.7.9-1.2 1.2c-.7.6-1.4.9-2.1 1-.8.1-1.5.1-2.1-.2-.6-.2-1.2-.7-1.6-1.3s-.6-1.4-.5-2.3c0-.5.1-.9.2-1.3s.3-.8.5-1.1.5-.6.8-.7c.3-.2.7-.3 1.2-.2.5 0 .8.2 1.1.6.3.3.4.7.3 1.1-.1.3-.1.6.1.8s.4.3.7.3.6-.1.9-.3.5-.5.7-.9c.2-.7.2-1.3-.1-1.9-.2-.6-.6-1.1-1.2-1.5-.5-.4-1.1-.7-1.8-.8s-1.4-.1-2.1.1-1.3.6-1.9 1.1-.9 1-1.2 1.6-.6 1.2-.7 1.8-.2 1.3-.2 1.9v.2l-.6 1c-.3.4-.7.9-1.2 1.2-.7.6-1.4.9-2.1 1-.8.1-1.5.1-2.1-.2-.6-.2-1.2-.7-1.6-1.3s-.6-1.4-.5-2.3c0-.5.1-.9.2-1.3s.3-.8.5-1.1.5-.6.8-.7c.3-.2.7-.3 1.2-.2.5 0 .8.2 1.1.6.3.3.4.7.3 1.1-.1.3-.1.6.1.8s.4.3.7.3.6-.1.9-.3.5-.5.7-.9c.2-.7.2-1.3-.1-1.9-.2-.6-.6-1.1-1.2-1.5-.5-.4-1.1-.7-1.8-.8s-1.4-.1-2.1.1-1.3.6-1.9 1.1-.9 1-1.2 1.6-.6 1.2-.7 1.8-.2 1.3-.2 1.9c0 .3 0 .7.1 1l-.6 1.1c-.2.3-.5.6-.8.7s-.6.3-.8.2c-.2 0-.4-.2-.6-.6-.1-.3-.2-.8 0-1.5.1-.7.3-1.5.5-2.3l.6-2.2c.2-.8.3-1.5 0-2-.2-.5-.5-.9-.9-1.1s-.8-.1-1.3.2c-.4.3-.8.9-1 1.8-.1.6-.3 1.2-.4 1.8l-.3 1.9c-.1.8-.1 1.5-.1 2.2.1.7.2 1.3.4 1.9.2.5.5 1 .9 1.3s.8.5 1.3.6c.5 0 1-.1 1.4-.4a5.73 5.73 0 0 0 1.1-1.1c.3-.4.6-.9.8-1.4.2.5.5 1 .8 1.5.4.5 1 .9 1.6 1.2s1.4.5 2.3.5c1.2 0 2.3-.3 3.1-.8s1.5-1.2 2.1-2l.6-1c0 .1.1.2.1.3.2.7.5 1.2.9 1.7s1 .9 1.6 1.2 1.4.5 2.3.5c1.2 0 2.3-.3 3.1-.8s1.5-1.2 2.1-2c.1-.2.3-.4.4-.6 0 .2 0 .4-.1.6-.1.5-.1.9-.1 1.1-.1.5 0 .9.3 1.1s.6.3.9.4c.3 0 .7-.1 1-.2.3-.2.5-.4.5-.7.1-.4.2-.9.3-1.8l.4-2.8c.1-.6.4-1.1.6-1.6.2-.4.5-.7.7-.9.3-.2.5-.3.8-.3s.5 0 .7.1c.4.1.6.4.8.8s.2 1 .1 2c-.2 1.8-.2 3.2.2 4.2s1.1 1.4 2.1 1.4c.5 0 .9-.1 1.3-.4s.7-.7 1-1.2c.2-.3.4-.6.5-1l.3.8c.2.5.6 1 .9 1.3.4.3.8.5 1.3.5.4 0 .9-.1 1.2-.4a1.96 1.96 0 0 0 .9-.9c.3-.4.5-.8.7-1.3s.4-1 .5-1.5c.1.5.2 1 .4 1.5s.4.9.6 1.3a2.36 2.36 0 0 0 .8.9c.3.2.7.3 1.1.3.5 0 .9-.2 1.3-.5s.7-.7 1-1.2.5-1 .8-1.6.4-1.2.5-1.7l.3-1.5c.1-.5.1-.8.1-1.1v-1.2m-19.1-4c-.5.4-1.1.6-1.7.6 0-.3.1-.6.1-.8s.1-.5.1-.7l.4-2 .5-1.9c.2-.6.4-1 .7-1.3s.6-.4.9-.3c.2.1.4.3.6.7.1.4.2.8.2 1.3s0 1-.1 1.6-.3 1.1-.6 1.6c-.3.4-.6.8-1.1 1.2"></path><path d="M85.6 30.9c.9 0 1.6.2 2.1.6s.7 1 .7 1.7c0 .3-.1.6-.2.9s-.3.5-.5.7-.5.4-.9.5c-.3.1-.7.2-1.1.2h-1.4v3.1h-.6v-7.8c0 0 1.9.1 1.9.1zm0 4.2c.3 0 .6 0 .9-.1s.5-.2.7-.4.3-.4.4-.6.2-.5.2-.7c0-.6-.2-1.1-.5-1.4-.4-.3-.9-.5-1.6-.5h-1.4v3.7h1.3zm9 3.1v.5H90v-7.8h4.6v.5h-4.1v3.1h3.4v.5h-3.4v3.2h4.1zm7.1.5h-.7l-.1-.1-2.5-3.2-.2-.2h-1.3v3.5h-.6v-7.8h2c.9 0 1.6.2 2 .5s.7.9.7 1.5c0 .3-.1.6-.2.8s-.2.5-.4.6c-.2.2-.4.3-.7.5-.3.1-.6.2-.9.2.1.1.2.1.2.2 0 0 2.7 3.5 2.7 3.5zm-3.5-3.9c.3 0 .7 0 .9-.1s.5-.2.7-.4.3-.3.4-.6c.1-.2.1-.5.1-.7 0-.6-.2-1-.5-1.2-.3-.3-.8-.4-1.5-.4h-1.4v3.4h1.3zm7.6 3.5c.4 0 .7-.1 1-.2s.5-.3.7-.5.4-.5.5-.8.2-.7.2-1V31h.6v4.8c0 .4-.1.8-.2 1.2s-.3.7-.6 1-.6.5-.9.7c-.4.2-.8.2-1.2.2s-.8-.1-1.2-.2c-.3-.1-.7-.4-.9-.7-.3-.3-.4-.6-.6-1s-.2-.8-.2-1.2V31h.6v4.8c0 .4.1.7.2 1s.3.6.5.8.4.4.7.5c.1.1.4.2.8.2m1.8-9.7l-1.8 1.6s-.1 0-.1.1h-.5l1.4-1.5c0-.1.1-.1.1-.1l.9-.1zm11 2.8h-2.7v7.3h-.6v-7.3h-2.7v-.5h6v.5zm7.8 3.4c0 .6-.1 1.1-.3 1.6s-.4.9-.8 1.3-.7.6-1.2.8-1 .3-1.5.3-1-.1-1.5-.3-.8-.5-1.2-.8c-.3-.3-.6-.8-.8-1.3s-.3-1-.3-1.6.1-1.1.3-1.6.4-.9.8-1.3c.3-.3.7-.6 1.2-.8s1-.3 1.5-.3 1.1.1 1.5.3.8.5 1.2.8.6.8.8 1.3.3 1 .3 1.6m-.6 0c0-.5-.1-1-.2-1.5-.1-.4-.4-.8-.6-1.1-.3-.3-.6-.5-1-.7s-.8-.2-1.3-.2-.9.1-1.3.2c-.4.2-.7.4-1 .7s-.5.7-.6 1.1c-.2.4-.2.9-.2 1.5 0 .5.1 1 .2 1.5l.6 1.1c.2.3.6.5 1 .7s.8.2 1.3.2.9-.1 1.3-.2c.4-.2.7-.4 1-.7s.5-.7.6-1.1c.1-.5.2-.9.2-1.5m5.2 3.5c.4 0 .7-.1 1-.2s.5-.3.7-.5.4-.5.5-.8.2-.7.2-1V31h.6v4.8c0 .4-.1.8-.2 1.2s-.3.7-.6 1-.6.5-.9.7c-.4.2-.8.2-1.2.2s-.8-.1-1.2-.2c-.4-.2-.7-.4-.9-.7-.3-.3-.4-.6-.6-1s-.2-.8-.2-1.2V31h.6v4.8c0 .4.1.7.2 1s.3.6.5.8.4.4.7.5c.1.1.4.2.8.2m10.5.4h-.7c-.1 0-.1-.1-.1-.1l-2.5-3.1-.2-.2h-1.3v3.5h-.6V31h2c.9 0 1.6.2 2 .5s.7.9.7 1.5c0 .3-.1.6-.2.8s-.2.5-.4.6c-.2.2-.4.3-.7.5-.3.1-.6.2-.9.2.1.1.2.1.2.2 0 0 2.7 3.4 2.7 3.4zm-3.5-3.9c.3 0 .7 0 .9-.1.3-.1.5-.2.7-.4s.3-.3.4-.6c.1-.2.1-.5.1-.7 0-.6-.2-1-.5-1.2s-.9-.4-1.6-.4h-1.4v3.4h1.4 0zm8.6-2.9c0 .1-.1.1 0 0-.1.1-.2.1-.3 0s-.2-.1-.3-.2-.3-.2-.5-.2c-.2-.1-.4-.1-.7-.1s-.5 0-.7.1-.4.2-.5.3-.3.3-.3.5c-.1.2-.1.4-.1.6 0 .3.1.5.2.7s.3.3.4.4l.6.3c.2.1.5.2.7.2s.5.2.7.3.4.2.6.4c.2.1.3.3.4.5s.2.5.2.8-.1.6-.2.9-.3.5-.5.7-.5.4-.8.5-.7.2-1.1.2c-.5 0-1-.1-1.3-.3-.4-.2-.7-.4-1-.7l.2-.2c0-.1.1-.1.2-.1 0 0 .1 0 .1.1.1 0 .1.1.2.2s.2.1.3.2.2.1.4.2c.1.1.3.1.5.2s.4.1.6.1c.3 0 .6 0 .8-.1s.4-.2.6-.4.3-.4.4-.6.1-.5.1-.7c0-.3-.1-.5-.2-.7s-.3-.3-.4-.4l-.6-.3c-.2-.1-.5-.2-.7-.2-.2-.1-.5-.2-.7-.3s-.4-.2-.6-.4c-.2-.1-.3-.3-.4-.6s-.2-.5-.2-.8 0-.5.1-.8c.1-.2.2-.5.4-.6.2-.2.4-.3.7-.4s.6-.2 1-.2.8.1 1.1.2.6.3.9.6l-.3.1h0z"></path></g></svg>